<svg xmlns="http://www.w3.org/2000/svg" viewBox="0 0 78.08 17.82"><defs><style>.cls-1{fill:#71c8df;}.cls-2{fill:#c9e7ef;}.cls-3{fill:#18556b;}</style></defs><g id="Capa_2" data-name="Capa 2"><g id="Capa_1-2" data-name="Capa 1"><rect class="cls-1" y="4.79" width="3.8" height="3.8"/><rect class="cls-1" y="9.22" width="3.8" height="3.8"/><rect class="cls-1" y="13.65" width="3.8" height="3.8"/><rect class="cls-2" x="4.43" y="4.79" width="3.8" height="3.8"/><rect class="cls-1" x="4.43" y="9.22" width="3.8" height="3.8"/><rect class="cls-2" x="4.43" y="13.65" width="3.8" height="3.8"/><rect class="cls-2" x="8.85" y="4.79" width="3.8" height="3.8"/><rect class="cls-1" y="0.37" width="3.8" height="3.8"/><rect class="cls-1" x="4.43" y="0.37" width="3.8" height="3.8"/><rect class="cls-1" x="8.85" y="0.37" width="3.8" height="3.8"/><rect class="cls-2" x="8.85" y="9.22" width="3.8" height="3.8"/><rect class="cls-2" x="8.85" y="13.65" width="3.8" height="3.8"/><path class="cls-3" d="M16.21.43l9.9,0V1.92A1.78,1.78,0,0,1,24.34,3.7h-4V7.47h5.2V10.8h-5.2v6.72H16.23Z"/><path class="cls-3" d="M29.88.41h8.17V1.9a1.78,1.78,0,0,1-1.78,1.78H32.21V7.15h5.3v3.28H32.22v3.79H36.5A1.78,1.78,0,0,1,38.28,16v1.5H28.13l0-15.32A1.78,1.78,0,0,1,29.88.41Z"/><path class="cls-3" d="M48.68,8.56l4.57,8.92H50.38A2.49,2.49,0,0,1,48.12,16l-2-4.35-2.61,5.8H39.15l4.58-9.11L39.59.4h2.9a2.52,2.52,0,0,1,2.28,1.47l1.54,3.43,2-4.9h4.38Z"/><path class="cls-3" d="M53.42,7.81A10.85,10.85,0,0,1,54,4.19a5.84,5.84,0,0,1,1.49-2.36A5.58,5.58,0,0,1,57.69.55,10.38,10.38,0,0,1,60.56.17,15.54,15.54,0,0,1,63.77.5v2a1,1,0,0,1-1.19,1h-.12a12.92,12.92,0,0,0-1.3-.06,6.44,6.44,0,0,0-1.27.12,2,2,0,0,0-1,.52,2.92,2.92,0,0,0-.72,1.17,6.3,6.3,0,0,0-.27,2.06v3.11a6,6,0,0,0,.28,2.06,2.85,2.85,0,0,0,.75,1.16,2.14,2.14,0,0,0,1.06.53,7.32,7.32,0,0,0,1.27.11,11.24,11.24,0,0,0,1.47-.08h0a1,1,0,0,1,1.18,1v2.05a15.76,15.76,0,0,1-1.63.26c-.54,0-1.08.07-1.63.08a10.13,10.13,0,0,1-2.88-.39A5.54,5.54,0,0,1,55.47,16,5.94,5.94,0,0,1,54,13.67,10.6,10.6,0,0,1,53.42,10Z"/><path class="cls-3" d="M71.58,17.82a8.12,8.12,0,0,1-2.69-.42A5.16,5.16,0,0,1,66.82,16a6.28,6.28,0,0,1-1.32-2.43A12.82,12.82,0,0,1,65,10V7.88a12.47,12.47,0,0,1,.47-3.66,6.42,6.42,0,0,1,1.33-2.43A4.93,4.93,0,0,1,68.89.43,7.87,7.87,0,0,1,71.56,0a8.12,8.12,0,0,1,2.69.42,4.83,4.83,0,0,1,2,1.36,6.27,6.27,0,0,1,1.31,2.43,12.45,12.45,0,0,1,.47,3.65V9.94a12.88,12.88,0,0,1-.44,3.65A6.36,6.36,0,0,1,76.35,16a5,5,0,0,1-2,1.36A8.26,8.26,0,0,1,71.58,17.82Zm0-14.59a1.92,1.92,0,0,0-1.12.3,1.79,1.79,0,0,0-.65.87,5.59,5.59,0,0,0-.32,1.45,17.87,17.87,0,0,0-.08,2.05v2a20.33,20.33,0,0,0,.09,2,5.69,5.69,0,0,0,.32,1.45,2,2,0,0,0,.64.87,1.89,1.89,0,0,0,1.08.29,1.92,1.92,0,0,0,1.12-.3,1.86,1.86,0,0,0,.65-.87,5.26,5.26,0,0,0,.3-1.45c0-.58.08-1.26.08-2v-2a11.61,11.61,0,0,0-.41-3.51A1.62,1.62,0,0,0,71.59,3.23Z"/></g></g></svg>