<svg xmlns="http://www.w3.org/2000/svg" viewBox="0 0 113.57 32.7"><defs><style>.cls-1{fill:#18556b;}</style></defs><g id="Capa_2" data-name="Capa 2"><g id="Capa_1-2" data-name="Capa 1"><path class="cls-1" d="M0,.78l18.16,0V3.52a3.28,3.28,0,0,1-3.26,3.27H7.63v6.92h9.55v6.12H7.65V32.16H0Z"/><path class="cls-1" d="M25.09.75l15,0V3.49a3.26,3.26,0,0,1-3.26,3.27H29.37v6.35h9.74v6H29.38v7h7.84a3.26,3.26,0,0,1,3.27,3.26v2.76l-18.64,0L21.84,4A3.25,3.25,0,0,1,25.09.75Z"/><path class="cls-1" d="M59.59,15.72,68,32.08H62.72a4.6,4.6,0,0,1-4.16-2.65l-3.72-8L50.06,32.11h-8L50.51,15.4,42.91.73h5.32a4.61,4.61,0,0,1,4.19,2.7L55.25,9.7l3.66-9h8Z"/><path class="cls-1" d="M68.29,14.34a19.73,19.73,0,0,1,1-6.65A11,11,0,0,1,72,3.35,10.2,10.2,0,0,1,76.14,1,18.61,18.61,0,0,1,81.41.31a28.07,28.07,0,0,1,5.88.6V4.67A1.92,1.92,0,0,1,85.1,6.56l-.2,0a22.13,22.13,0,0,0-2.4-.12,11.59,11.59,0,0,0-2.33.22,3.88,3.88,0,0,0-1.93,1,5.26,5.26,0,0,0-1.32,2.15,11.93,11.93,0,0,0-.49,3.79v5.69A11.32,11.32,0,0,0,77,23a5.35,5.35,0,0,0,1.37,2.14,4.07,4.07,0,0,0,2,1,12.54,12.54,0,0,0,2.33.21,22.69,22.69,0,0,0,2.71-.15h0a1.93,1.93,0,0,1,2.17,1.9v3.75a23.94,23.94,0,0,1-3,.47c-1,.1-2,.14-3,.15a19.31,19.31,0,0,1-5.3-.7,10.46,10.46,0,0,1-4.19-2.33,11,11,0,0,1-2.76-4.32,19.56,19.56,0,0,1-1-6.66Z"/><path class="cls-1" d="M101.63,32.7a14.51,14.51,0,0,1-4.94-.77,9,9,0,0,1-3.79-2.49A11.55,11.55,0,0,1,90.47,25a23.19,23.19,0,0,1-.86-6.71V14.46a22.9,22.9,0,0,1,.86-6.71,11.69,11.69,0,0,1,2.45-4.47A9.12,9.12,0,0,1,96.7.78a16,16,0,0,1,9.83,0,9,9,0,0,1,3.77,2.49,11.63,11.63,0,0,1,2.41,4.47,23.14,23.14,0,0,1,.85,6.7v3.81a23.66,23.66,0,0,1-.82,6.71,11.45,11.45,0,0,1-2.37,4.47,9,9,0,0,1-3.76,2.5A14.93,14.93,0,0,1,101.63,32.7Zm0-26.77a3.53,3.53,0,0,0-2.05.54,3.43,3.43,0,0,0-1.2,1.6,10.24,10.24,0,0,0-.58,2.66,37.62,37.62,0,0,0-.16,3.77v3.67a37,37,0,0,0,.17,3.76,10.12,10.12,0,0,0,.59,2.66,3.61,3.61,0,0,0,1.18,1.6,3.32,3.32,0,0,0,2,.54,3.42,3.42,0,0,0,2-.55,3.38,3.38,0,0,0,1.2-1.6,9.37,9.37,0,0,0,.56-2.66c.1-1.06.14-2.32.14-3.76V14.49A21.31,21.31,0,0,0,104.78,8,3,3,0,0,0,101.65,5.93Z"/></g></g></svg>